<?xml version="1.0" encoding="UTF-8"?>
<svg width="148px" height="61px" viewBox="0 0 148 61" version="1.1" xmlns="http://www.w3.org/2000/svg" xmlns:xlink="http://www.w3.org/1999/xlink">
    <title>Logo</title>
    <g id="Page-1" stroke="none" stroke-width="1" fill="none" fill-rule="evenodd">
        <g id="Logo" transform="translate(0.939000, 0.476000)" fill="#0A2652" fill-rule="nonzero">
            <path d="M23.841,16.337 L23.601,16.337 C21.36,22.89 19.36,29.443 17.28,35.817 L29.761,35.817 L23.841,16.337 Z M30.641,59.695 L30.641,56.553 C35.361,55.745 35.761,54.668 34.481,50.718 C33.681,48.025 32.481,44.166 31.281,40.575 L15.92,40.575 C15.04,43.357 14,46.588 13.04,50.179 C11.84,54.489 12.08,55.745 17.92,56.553 L17.92,59.695 L-7.10542736e-15,59.695 L-7.10542736e-15,56.553 C5.28,55.835 6.32,54.847 8.96,47.307 L25.361,1.167 L29.441,0 C34.561,15.709 39.521,31.329 44.721,46.768 C47.441,54.757 48.401,55.835 53.521,56.553 L53.521,59.695 L30.641,59.695 Z" id="Fill-4"></path>
            <path d="M75.28,31.867 C76.24,32.316 77.92,32.764 79.6,32.764 C82.48,32.764 88.88,30.43 88.88,18.312 C88.88,8.169 83.84,4.847 78.96,4.847 C77.44,4.847 76.48,5.295 76,5.745 C75.44,6.283 75.28,7.181 75.28,8.528 L75.28,31.867 Z M80.48,1.346 C86.8,1.346 91.28,2.334 94.48,4.847 C98.241,7.719 100.4,12.208 100.4,18.043 C100.4,30.162 92.48,35.547 84,36.714 C82.8,36.894 81.6,36.894 80.72,36.894 L75.28,35.368 L75.28,47.755 C75.28,55.386 76,56.014 82.8,56.643 L82.8,59.695 L57.999,59.695 L57.999,56.643 C63.999,56.014 64.72,55.386 64.72,47.755 L64.72,13.375 C64.72,5.745 63.999,5.117 58.399,4.488 L58.399,1.346 L80.48,1.346 Z" id="Fill-5"></path>
            <path d="M146.401,44.524 C145.761,48.384 144.081,57.271 143.441,59.695 L104.48,59.695 L104.48,56.553 C111.44,55.924 112.24,55.386 112.24,47.755 L112.24,13.375 C112.24,5.655 111.44,5.117 105.36,4.488 L105.36,1.346 L129.761,1.346 L129.761,4.488 C123.681,5.117 122.96,5.655 122.96,13.375 L122.96,48.474 C122.96,52.693 123.281,54.309 124.88,55.117 C126.321,55.745 128.401,55.835 130.881,55.835 C134.321,55.835 137.201,55.207 139.121,52.783 C140.561,50.988 142.081,48.115 143.521,43.627 L146.401,44.524" id="Fill-6"></path>
        </g>
    </g>
</svg>