<?xml version="1.0" encoding="UTF-8"?>
<svg width="1200pt" height="1200pt" version="1.1" viewBox="0 0 1200 1200" xmlns="http://www.w3.org/2000/svg">
 <path d="m292.74 1013.1-78.188-75.047c-34.031-32.625-52.922-71.438-57.75-118.31l-30.844-300.74c-4.5469-44.156 45.984-71.766 64.969-6.8906l38.859 132.71c-6.0469 1.9688-11.906 4.9219-17.484 9.0938-35.578 26.156-32.344 74.578-4.4062 105.38l95.344 105.09c5.7188 6.3281 15.516 6.75 21.844 1.0781l3.2812-2.9531c6.2344-5.7188 6.7969-15.516 1.0781-21.844l-95.438-105.09c-32.859-36.281 5.7656-79.734 41.344-46.547 98.719 92.062 193.31 154.03 195.66 304.64v64.828l-159.66-0.09375-0.046875-2.7188c-0.23438-16.688-6.4688-31.031-18.562-42.562zm205.08 80.625h-212.21c-5.7656 0-10.453 4.7344-10.453 10.453v79.359c0 5.7188 4.6875 10.453 10.453 10.453h212.16c5.7656 0 10.453-4.7344 10.453-10.453l0.046875-79.359c0-5.7188-4.6875-10.453-10.453-10.453zm511.26-581.68-38.812 132.71c6 1.9688 11.859 4.9219 17.438 9.0938 35.578 26.156 32.344 74.578 4.4531 105.38l-95.344 105.09c-5.7188 6.3281-15.609 6.75-21.891 1.0781l-3.2344-2.9531c-6.3281-5.7188-6.7969-15.516-1.0781-21.844l95.344-105.09c32.953-36.281-5.7656-79.734-41.344-46.547-98.672 92.062-193.31 154.03-195.66 304.64v64.828h159.71l0.046875-2.7188c0.28125-16.688 6.4219-31.031 18.562-42.609l78.188-75.047c34.031-32.625 52.922-71.438 57.75-118.31l30.844-300.74c4.5469-44.203-45.938-71.812-64.969-6.9375zm-94.641 581.68h-212.26c-5.7188 0-10.453 4.7344-10.453 10.453v79.359c0 5.7188 4.7344 10.453 10.453 10.453h212.26c5.7188 0 10.453-4.7344 10.453-10.453v-79.359c0-5.7188-4.7344-10.453-10.453-10.453zm-469.26-413.29c7.2188-21.75 20.578-40.781 37.922-54.938 20.109-16.312 45.562-26.25 73.219-26.531-7.125-4.0312-13.641-8.9531-19.312-14.672-16.125-16.125-26.109-38.391-26.109-63s9.9844-46.875 26.109-63 38.391-26.109 63-26.109 46.875 9.9375 63 26.109c16.125 16.125 26.109 38.391 26.109 63s-9.9844 46.875-26.109 63c-5.7188 5.7188-12.188 10.641-19.266 14.672 27.562 0.28125 53.016 10.172 73.125 26.531 17.438 14.156 30.797 33.141 37.922 54.938 28.688-34.734 45.984-79.266 45.984-127.87 0-110.91-89.906-200.72-200.81-200.72-110.91 0-200.72 89.859-200.72 200.72 0.046875 48.609 17.297 93.141 45.938 127.87zm154.82-209.9c-14.016 0-26.719 5.6719-35.906 14.859-9.1406 9.1406-14.859 21.891-14.859 35.906 0 14.016 5.7188 26.719 14.859 35.906 9.1875 9.1406 21.891 14.859 35.906 14.859s26.766-5.7188 35.906-14.859c9.1875-9.1875 14.859-21.891 14.859-35.906 0-14.016-5.6719-26.766-14.859-35.906-9.1875-9.1875-21.891-14.859-35.906-14.859zm120.37 228.28c-4.125-17.438-14.062-32.672-27.609-43.688-13.688-11.203-31.172-17.812-50.203-17.812h-85.031c-19.078 0-36.562 6.6562-50.25 17.812-13.547 10.969-23.391 26.25-27.562 43.688v14.484c33.469 25.125 75.141 39.984 120.28 39.984 45.188 0 86.812-14.859 120.37-39.984zm36.609-427.6 55.969 40.5c4.7344 3.4219 6.6562 9.2812 4.875 14.859l-21.516 65.719c-1.8281 5.5781 0.046875 11.438 4.7812 14.859s10.828 3.4219 15.609 0l55.828-40.781c4.7344-3.4219 10.922-3.4219 15.656 0l55.828 40.781c4.7344 3.4219 10.922 3.4219 15.656 0s6.5625-9.2812 4.7812-14.859l-21.516-65.719c-1.8281-5.5781 0.046875-11.438 4.875-14.859l55.969-40.5c4.7344-3.4219 6.6562-9.2812 4.875-14.859-1.8281-5.5312-6.8438-9.1406-12.703-9.1406l-69.141 0.14062c-5.8594 0-10.828-3.6094-12.609-9.1875l-21.234-65.766c-1.7812-5.5781-6.7969-9.1875-12.609-9.1875-5.8594 0-10.781 3.6094-12.609 9.1875l-21.188 65.766c-1.8281 5.5781-6.8438 9.1875-12.703 9.1875l-69.141-0.14062c-5.8594 0-10.781 3.6094-12.609 9.1406-1.7812 5.5781 0.14062 11.438 4.875 14.859zm-560.81 0 56.062 40.5c4.7344 3.4219 6.6562 9.2812 4.7812 14.859l-21.422 65.719c-1.8281 5.5781 0.046875 11.438 4.7812 14.859s10.828 3.4219 15.609 0l55.828-40.781c4.7344-3.4219 10.922-3.4219 15.656 0l55.828 40.781c4.7344 3.4219 10.828 3.4219 15.609 0 4.7344-3.4219 6.6562-9.2812 4.875-14.859l-21.516-65.719c-1.8281-5.5781 0.09375-11.438 4.7812-14.859l56.062-40.5c4.7344-3.4219 6.6562-9.2812 4.7812-14.859-1.7812-5.5312-6.7969-9.1406-12.609-9.1406l-69.141 0.14062c-5.8594 0-10.828-3.6094-12.609-9.1875l-21.234-65.766c-1.7812-5.5781-6.7969-9.1875-12.609-9.1875-5.8594 0-10.781 3.6094-12.609 9.1875l-21.234 65.766c-1.7812 5.5781-6.7969 9.1875-12.609 9.1875l-69.234-0.1875c-5.8594 0-10.828 3.6094-12.609 9.1406-1.875 5.625 0.046875 11.484 4.7812 14.906zm280.45-157.13 55.969 40.5c4.7344 3.4688 6.6562 9.3281 4.7812 14.859l-21.422 65.719c-1.8281 5.5781 0.046875 11.438 4.7812 14.859s10.828 3.4219 15.609 0l55.828-40.781c4.7344-3.4219 10.922-3.4219 15.656 0l55.828 40.781c4.7344 3.4219 10.922 3.4219 15.656 0s6.5625-9.2812 4.7812-14.859l-21.516-65.719c-1.8281-5.5312 0.046875-11.391 4.7812-14.859l56.062-40.5c4.7344-3.4219 6.6562-9.2812 4.7812-14.859-1.7812-5.5312-6.7969-9.1406-12.609-9.1406l-69.141 0.14062c-5.8594 0-10.828-3.6094-12.609-9.1875l-21.234-65.766c-1.7812-5.5781-6.75-9.1875-12.609-9.1875s-10.781 3.6094-12.609 9.1406l-21.234 65.766c-1.7812 5.5781-6.7969 9.1875-12.609 9.1875l-69.141-0.14062c-5.8594 0-10.781 3.6094-12.609 9.1406-1.8281 5.625 0 11.484 4.8281 14.906z" fill-rule="evenodd"/>
</svg>
