<svg width="989" height="1401" viewBox="0 0 989 1401" fill="none" xmlns="http://www.w3.org/2000/svg">
<path d="M969.181 796.291L923.233 731.291C918.785 725.192 915.832 718.192 914.733 710.343C907.983 666.244 894.983 624.244 876.035 585.493C867.338 567.691 849.233 556.442 829.437 556.442H632.183C675.381 471.692 732.033 412.295 803.383 377.441L783.935 407.04C757.337 447.54 792.987 500.04 840.435 490.191C854.586 487.243 866.935 478.842 874.883 466.789L973.383 316.789C989.883 291.691 982.883 257.94 957.785 241.44L807.785 142.94C795.686 135.039 780.935 132.237 766.837 135.138C719.389 144.987 707.487 207.289 748.034 233.887L797.935 266.637C689.238 306.939 604.189 386.735 542.989 503.73V183.183L579.541 219.735C613.791 254.038 672.442 229.735 672.442 181.287C672.442 166.839 666.692 153.037 656.494 142.839L529.593 15.938C508.342 -5.31267 473.895 -5.31267 452.645 15.938L325.743 142.839C315.545 153.037 309.795 166.891 309.795 181.287C309.795 229.787 368.394 254.037 402.697 219.735L439.249 183.183V503.73C378.051 386.73 292.995 306.93 184.302 266.637L234.203 233.887C274.755 207.289 262.854 144.986 215.401 135.138C201.338 132.232 186.589 135.034 174.537 142.935L24.5366 241.435C-0.562061 257.935 -7.56207 291.632 8.93793 316.784L107.438 466.784C115.339 478.836 127.741 487.284 141.886 490.186C189.334 500.035 225.037 447.535 198.386 407.035L178.886 377.436C250.287 412.286 306.938 471.687 350.086 556.436H115.486C95.6833 556.436 77.5846 567.738 68.8873 585.488C40.0846 644.338 25.538 707.639 25.538 773.542C25.1369 925.142 102.387 1064.29 232.085 1145.69C248.235 1155.89 258.235 1173.49 258.235 1191.74V1348.25C258.235 1376.9 281.433 1400.1 310.085 1400.1H698.138C726.789 1400.1 749.987 1376.9 749.987 1348.25V1214.75H799.487C857.889 1214.75 905.389 1167.75 905.389 1110V971.004L947.639 938.754C992.082 904.598 1001.53 842.098 969.181 796.3V796.291Z" fill="black"/>
</svg>
