<?xml version="1.0" encoding="UTF-8"?>
<svg width="1200pt" height="1200pt" version="1.1" viewBox="0 0 1200 1200" xmlns="http://www.w3.org/2000/svg">
 <path d="m502.6 395.63 155.63-145.22c2.6719-2.4844 5.3906-3.9844 8.9531-4.875l50.156-12.047h0.046874l4.5469-1.125 55.406-13.359c3.5625-0.84375 6.7031-0.79688 10.219 0.23438l118.17 34.922c5.2969 1.5469 9.1406 4.6875 11.766 9.5156l44.016 80.906c12.516 23.016-23.391 42.609-35.906 19.547l-33.047-60.75c-4.4531-8.1562-11.438-13.828-20.344-16.453l-72.516-21.422c-5.2969-1.5469-10.359 3.2344-9.0469 8.5781l44.109 183.19c0.32813 1.3594 1.0312 2.5312 2.0156 3.4688l152.81 147.84c19.406 18.75-19.078 49.781-39.281 30.984l-160.5-149.16c-1.7812-1.6875-4.2188-2.2969-6.6094-1.7344l-96.609 23.25c-3.8438 0.9375-6.2344 4.875-5.3438 8.7188l23.438 97.359c6.4219 26.625-46.172 39.234-52.594 12.656l-33.141-137.76c-2.5312-10.594 3.9844-21.281 14.578-23.859l75.609-18.234c3.8438-0.9375 6.2344-4.8281 5.3438-8.6719l-34.031-141.47c-1.3125-5.3906-8.0156-7.3125-11.953-3.5625l-137.76 128.63c-19.969 18.609-48.047-11.531-28.125-30.094zm493.55-271.22-30.984 51h128.95v510.14h24.047l0.09375-619.6h-153.05l30.984 50.953c1.3594 2.2969 1.3594 5.2031-0.046875 7.5zm-280.5 94.641c39.234-9.375 54.797-54.938 31.406-86.109-29.156-38.859-91.078-22.969-97.922 25.172-5.4375 38.344 29.719 69.703 66.516 60.938zm-447.42 198.94c29.859 4.2656 57.656-16.594 61.875-46.453 2.0625-14.438-1.6406-28.875-10.406-40.547-29.156-38.812-91.078-22.922-97.922 25.172-4.2188 29.859 16.547 57.562 46.453 61.828zm49.172 295.08-14.109 99.188c-3.8438 27.094 49.688 34.781 53.531 7.5938l19.969-140.29c1.5469-10.828-6.0938-20.812-16.781-22.359l-77.016-10.969c-3.9844-0.5625-6.7031-4.2656-6.1406-8.1562l20.531-144.14c0.60938-4.4062 4.9219-7.125 9.0938-5.9062l90.609 25.734 89.344-34.594c24.328-9.4219 8.8594-47.625-15.281-37.922l-66.094 24.047c-1.4062 0.51562-3 0.60938-4.4531 0.1875l-95.766-27.75-77.719-11.062c-15.094-2.1562-29.062 7.9688-31.641 23.062l-32.812 190.92-89.438 258.37c-9.1406 25.781 41.531 43.922 50.953 18.141l80.906-221.53c1.1719-3.1875 4.4062-5.1562 7.7812-4.6875l98.391 14.016c3.9375 0.51562 6.7031 4.2188 6.1406 8.1094zm190.4-8.2969v214.64c0 3.9844-3.2344 7.2188-7.2188 7.2188h-269.34v207.42h896.63l0.046874-429.28z"/>
</svg>
