<?xml version="1.0" encoding="UTF-8"?>
<svg width="1200pt" height="1200pt" version="1.1" viewBox="0 0 1200 1200" xmlns="http://www.w3.org/2000/svg">
 <path d="m385.74 348.79c-21 0-38.016 17.062-38.016 38.062s17.016 38.016 38.016 38.016 38.016-17.016 38.016-38.016-17.016-38.109-38.016-38.062zm245.81 0c-20.953 0-38.016 17.062-37.969 38.062 0 21 17.016 38.016 37.969 38.016 21 0 38.016-17.016 38.016-38.016 0.046875-21-16.969-38.109-38.016-38.062zm245.81 0c-21 0-37.969 17.062-37.969 38.062s17.016 38.016 37.969 38.016c21 0 38.062-17.016 38.062-38.016s-17.062-38.109-38.062-38.062zm-429.32 89.906c-0.14062 0.046875-0.28125 0.09375-0.46875 0.14062h-0.65625c-7.0781-0.09375-12.797 5.625-12.844 12.656 0.046875 7.0312 5.7656 12.75 12.844 12.656h1.3594l31.266 46.688c-4.4531 5.625-6.1875 13.5-2.9531 21.281l21.609 52.594-96.516-0.09375c1.1719-1.5 2.1562-3.0938 2.9062-4.8281l4.8281-11.484c5.5781-13.453 8.4844-27.891 8.4844-42.516v-87.047h-64.266v0.32812c-0.5625-0.09375-1.0781-0.1875-1.6406-0.23438h-147.32c-1.2188-0.23438-2.4375-0.23438-3.6562 0-7.0312-0.046875-12.75 5.625-12.75 12.656s5.7656 12.75 12.797 12.656h1.4062l31.266 46.734c-4.4531 5.625-6.1875 13.453-2.9531 21.234l21.516 52.359-167.9-0.23438c-4.125-0.046875-7.7812 2.5781-9.0469 6.5156-1.2656 3.8906 0.1875 8.2031 3.5625 10.547 12.891 9.2812 28.359 24.703 61.641 38.016 33.234 13.359 84.234 24.797 170.81 29.297 8.7188 0.46875 19.312 0.79688 28.734 1.1719l41.016 61.219c-3.3281 0.98438-6.6094 2.0625-9.8438 3.3281l-27.234 10.969c-22.594 9.0469-47.812 9.0469-70.406 0l-66.609-26.766c-2.7656-1.0781-5.8594-1.0312-8.5781 0.1875-2.7656 1.1719-4.875 3.4219-6 6.2344-2.25 5.7188 0.5625 12.234 6.2812 14.578l66.656 26.578c27.938 11.156 59.016 11.156 86.953 0l27.234-10.828c22.594-9.0469 47.812-9.0469 70.359 0l27.234 10.828c27.938 11.156 59.203 11.156 87.141 0l27.234-10.828c22.547-9.0469 47.812-9.0469 70.359 0l27.234 10.828c27.938 11.156 59.016 11.156 86.953 0l27.422-10.828c22.547-9.0469 47.625-9.0469 70.219 0l27.375 10.828c27.938 11.156 59.016 11.156 86.953 0l66.656-26.578c5.7188-2.3438 8.4844-8.8594 6.2344-14.578-1.0781-2.8125-3.2344-5.1094-6-6.2812-2.7656-1.2188-5.9062-1.2656-8.6719-0.14062l-66.469 26.766c-22.594 9.0469-47.859 9.0469-70.453 0l-6.0469-2.4375-45.703-68.203c84.281-0.375 170.76-0.89062 258.1-1.5 2.4844 0 4.875-0.98438 6.6562-2.7656 1.7812-1.7344 2.7656-4.1719 2.7656-6.6562v-68.859c0-2.4844-0.98437-4.875-2.7656-6.6562s-4.1719-2.7656-6.6562-2.7188l-222.71-0.32812c1.3594-1.6406 2.4375-3.4688 3.2812-5.3906l4.8281-11.484c5.5781-13.453 8.4375-27.938 8.4375-42.516v-87.047h-64.266v0.32812c-0.51562-0.09375-1.0781-0.1875-1.5938-0.23438h-147.32c-1.2188-0.23438-2.4844-0.23438-3.6562 0-7.0312-0.046875-12.797 5.625-12.797 12.656s5.8125 12.75 12.844 12.656h1.3594l31.266 46.734c-4.4531 5.625-6.1406 13.453-2.9062 21.234l21.75 52.875-96.891-0.09375c1.2656-1.5469 2.2969-3.2812 3.1406-5.1094l4.7812-11.484c5.625-13.453 8.4844-27.891 8.4844-42.516v-87.047h-64.266v0.32812c-0.51562-0.09375-1.0781-0.1875-1.5938-0.23438h-149.06c-0.23437-0.09375-0.51562-0.14062-0.75-0.14062zm-94.406 25.219v75.516l-95.953-35.344c-2.3438-0.84375-4.5938-1.2656-6.8438-1.3125l-25.875-38.625h127.03c0.5625-0.046875 1.0781-0.14062 1.6406-0.23438zm245.81 0v75.516l-95.953-35.344c-2.2969-0.84375-4.5938-1.2656-6.7969-1.3125l-25.875-38.625h127.03c0.51562-0.046875 1.0781-0.14062 1.5938-0.23438zm245.81 0v75.516l-95.906-35.344c-2.3438-0.84375-4.6406-1.2656-6.8906-1.3125l-25.875-38.625h127.08c0.51562-0.046875 1.0781-0.14062 1.5938-0.23438zm-555.37 97.078 63.75 23.578-48-0.046875zm491.58 0 65.438 24.188-49.266-0.09375zm-245.72 0.046875 64.5 23.812-48.562-0.046875zm-418.5 42 142.78 0.1875 0.32812 0.79688 30.703 0.28125h0.046875l2.5781-1.0312h1.875l31.688 47.297c-4.7344-0.23438-10.453-0.375-14.953-0.60938-85.312-4.4062-134.16-15.75-164.72-27.984-16.078-6.4688-21.328-12.562-30.328-18.938zm200.95 0.23438 187.78 0.28125 0.1875 0.46875 30.75 0.28125h0.046875l1.7812-0.70312h2.9062l35.062 52.312c-86.953-0.5625-163.55-1.9688-226.22-4.4062zm246.05 0.32812 187.69 0.23438 0.046875 0.1875 30.75 0.28125h0.046875l1.0781-0.42188h3.7969l34.922 52.078c-78 0.28125-153.74 0.42188-223.18 0.046875zm245.95 0.32812 296.11 0.32812v50.109c-88.547 0.60938-175.97 1.1719-261.28 1.5469zm-446.81 66.797c63.562 2.25 140.16 3.4219 225.94 3.9844l34.406 51.422c-13.734 0.32812-27.516 3-40.547 8.2031l-27.328 10.969c-22.594 9.0469-47.672 9.0469-70.266 0l-27.188-10.969c-18.328-7.3125-38.062-9.75-57.375-7.4531zm471.74 3.9844 37.828 56.484c-25.5-7.8281-53.016-6.7969-77.953 3.1406l-27.188 10.969c-22.594 9.0469-47.812 9.0469-70.406 0l-27.234-10.969c-7.3594-2.9062-14.906-5.0625-22.594-6.4688l-35.578-53.062c69.703 0.32812 145.26 0.1875 223.13-0.09375zm-628.13 120.52c-5.7188-2.2969-12.234 0.51562-14.578 6.2344-1.125 2.8125-1.0781 5.9062 0.09375 8.6719s3.375 4.9688 6.1875 6.0938l66.656 26.578c27.938 11.203 59.016 11.203 86.953 0l27.234-10.969c22.594-9.0469 47.812-9.0469 70.359 0l27.234 10.969c27.938 11.203 59.203 11.203 87.141 0l27.234-10.969c22.547-9.0469 47.812-9.0469 70.359 0l27.234 10.969c27.938 11.203 59.016 11.203 86.953 0l27.422-10.969c22.547-9.0469 47.625-9.0469 70.219 0l27.375 10.969c27.938 11.203 59.016 11.203 86.953 0l66.656-26.578c2.7656-1.125 5.0156-3.3281 6.1875-6.0938s1.1719-5.8594 0.046875-8.6719c-1.125-2.7656-3.2812-5.0156-6.0469-6.1875s-5.8594-1.1719-8.625-0.046875l-66.469 26.625c-22.594 9.0469-47.859 9.0469-70.453 0l-27.188-10.828c-27.938-11.156-59.203-11.156-87.141 0l-27.188 10.828c-22.594 9.0469-47.812 9.0469-70.406 0l-27.234-10.828c-27.938-11.156-59.062-11.156-87 0l-27.328 10.828c-22.594 9.0469-47.672 9.0469-70.266 0l-27.188-10.828c-27.938-11.156-59.203-11.156-87.141 0l-27.234 10.828c-22.594 9.0469-47.812 9.0469-70.406 0z"/>
</svg>
